<svg id="visual" viewBox="0 0 900 600" width="900" height="600" xmlns="http://www.w3.org/2000/svg" xmlns:xlink="http://www.w3.org/1999/xlink" version="1.1"><rect x="0" y="0" width="900" height="600" fill="#FFFFFF"></rect><path d="M0 412L30 409.7C60 407.3 120 402.7 180 391.8C240 381 300 364 360 367.8C420 371.7 480 396.3 540 405.7C600 415 660 409 720 409C780 409 840 415 870 418L900 421L900 601L870 601C840 601 780 601 720 601C660 601 600 601 540 601C480 601 420 601 360 601C300 601 240 601 180 601C120 601 60 601 30 601L0 601Z" fill="#ffc107" stroke-linecap="round" stroke-linejoin="miter"></path></svg>